<svg version="1.1" id="Layer_1" xmlns="http://www.w3.org/2000/svg" x="0px" y="0px"
	 viewBox="0 0 448 512" style="enable-background:new 0 0 448 512;" xml:space="preserve">
<path fill="#0B8BD4" d="M201.6,59.8c-31.6,0-57.2,25.6-57.2,57.2v238.2c0,54.5,44.2,98.6,98.7,98.7c54.5,0,98.7-44.1,98.7-98.7l0-196.8
	c0-14.1,11.5-25.6,25.6-25.6c14.1,0,25.6,11.5,25.6,25.6v196.8c0,82.9-67.1,149.9-149.9,149.9c-82.8,0-149.9-67.1-149.9-149.9V117
	c0-59.9,48.6-108.5,108.5-108.5c59.9,0,108.5,48.5,108.5,108.5v227.9c0,37-30,67.1-67.1,67.1c-37,0-67.1-30-67.1-67.1V158.4
	c0-14.1,11.5-25.6,25.6-25.6c14.1,0,25.6,11.5,25.6,25.6v186.4c0,8.7,7.1,15.8,15.8,15.8s15.8-7.1,15.8-15.8V117
	C258.8,85.4,233.2,59.8,201.6,59.8L201.6,59.8z"/>
</svg>
